<svg width="300" height="31" viewBox="0 0 300 31" fill="none" xmlns="http://www.w3.org/2000/svg">
<path d="M14.9385 30.3711L13.4541 30C12.2419 26.1159 10.9245 22.4359 9.50195 18.96C8.0918 15.4717 6.38477 11.5505 4.38086 7.19629C3.9974 6.34277 3.60156 5.73047 3.19336 5.35938C2.78516 4.98828 2.3584 4.80273 1.91309 4.80273C1.48014 4.80273 0.960612 4.82747 0.354492 4.87695L0.168945 4.50586C2.24707 3.4668 4.04069 2.94727 5.5498 2.94727C6.21777 4.25846 6.85482 5.57585 7.46094 6.89941C8.06706 8.21061 8.7041 9.68262 9.37207 11.3154C10.0524 12.9482 10.5658 14.1976 10.9121 15.0635C11.2585 15.917 11.8337 17.3828 12.6377 19.4609C13.4541 21.5391 13.9674 22.8503 14.1777 23.3945C14.5612 24.2975 14.8024 25.2933 14.9014 26.3818H15.2168C15.2539 26.2952 15.39 25.8623 15.625 25.083C15.86 24.3037 16.1383 23.5244 16.46 22.7451L23.3809 5.22949C23.4551 4.75944 23.2448 4.43164 22.75 4.24609C22.2676 4.06055 21.4883 4.01725 20.4121 4.11621L20.3008 3.78223C21.8965 3.32454 23.6035 3.0957 25.4219 3.0957C25.5208 3.0957 25.5889 3.139 25.626 3.22559C25.6755 3.2998 25.6878 3.38021 25.6631 3.4668C25.527 3.92448 25.3786 4.39453 25.2178 4.87695C25.0693 5.35938 21.6429 13.8574 14.9385 30.3711ZM42.1025 27.9033C42.1025 28.1136 42.1458 28.3115 42.2324 28.4971C42.3314 28.6702 42.4427 28.8187 42.5664 28.9424C42.7025 29.0537 42.8942 29.165 43.1416 29.2764C43.389 29.3877 43.6055 29.4743 43.791 29.5361C43.9766 29.598 44.2363 29.6784 44.5703 29.7773L44.4219 30.2227C43.6302 30.0742 42.8447 30 42.0654 30C41.0882 30 40.1234 30.099 39.1709 30.2969L39.0596 30.1113C39.3193 29.7526 39.4492 29.097 39.4492 28.1445V26.9199C38.8307 28.0703 37.8659 28.998 36.5547 29.7031C35.2559 30.4082 33.9385 30.7607 32.6025 30.7607C31.18 30.7607 30.0296 30.3958 29.1514 29.666C28.2855 28.9238 27.8525 27.8291 27.8525 26.3818C27.8525 25.4417 28.0443 24.6068 28.4277 23.877C28.8236 23.1348 29.3431 22.5101 29.9863 22.0029C30.6419 21.4834 31.4769 21.0257 32.4912 20.6299C33.5179 20.234 34.5693 19.9124 35.6455 19.665C36.734 19.4176 38.002 19.1888 39.4492 18.9785V17.2715C39.4492 13.8698 38.1071 12.1689 35.4229 12.1689C34.557 12.1689 33.4932 12.3854 32.2314 12.8184C30.9821 13.2389 29.9307 13.7956 29.0771 14.4883L28.3164 13.6162C29.3926 12.7627 30.6667 12.0576 32.1387 11.501C33.623 10.9443 35.0085 10.666 36.2949 10.666C36.8639 10.666 37.402 10.7217 37.9092 10.833C38.4287 10.932 38.9482 11.1237 39.4678 11.4082C39.9997 11.6803 40.4512 12.0329 40.8223 12.4658C41.2057 12.8864 41.515 13.4554 41.75 14.1729C41.985 14.8779 42.1025 15.682 42.1025 16.585V27.9033ZM33.4746 29.3506C34.5508 29.3506 35.6764 28.998 36.8516 28.293C38.0267 27.5755 38.8926 26.6849 39.4492 25.6211V19.9619C36.2826 20.4196 34.0189 21.1247 32.6582 22.0771C31.3099 23.0173 30.6357 24.3903 30.6357 26.1963C30.6357 27.2972 30.8708 28.1012 31.3408 28.6084C31.8109 29.1032 32.5221 29.3506 33.4746 29.3506ZM53.2539 26.6602C53.2539 27.6374 53.4827 28.361 53.9404 28.8311C54.3981 29.3011 55.2083 29.6413 56.3711 29.8516L56.2227 30.2969C54.8001 30.099 53.6992 30 52.9199 30C52.153 30 51.2871 30.099 50.3223 30.2969L50.2109 30.1113C50.4583 29.7526 50.582 29.097 50.582 28.1445V5.91602C50.582 4.15951 50.3717 2.98438 49.9512 2.39062C49.543 1.78451 48.6647 1.52474 47.3164 1.61133L47.2422 1.27734C49.2832 0.671224 51.1572 0.368164 52.8643 0.368164C53.124 1.01139 53.2539 1.71647 53.2539 2.4834V26.6602ZM73.3857 5.91602C73.3857 5.07487 73.3486 4.4069 73.2744 3.91211C73.2002 3.41732 73.0456 2.98438 72.8105 2.61328C72.5879 2.24219 72.2601 1.98242 71.8271 1.83398C71.3942 1.68555 70.8252 1.61133 70.1201 1.61133L70.0459 1.27734C72.0869 0.671224 73.9609 0.368164 75.668 0.368164C75.9154 1.02376 76.0391 1.72884 76.0391 2.4834V26.6602C76.0391 27.6374 76.2679 28.361 76.7256 28.8311C77.1833 29.3011 77.9935 29.6413 79.1562 29.8516L79.0078 30.2969C77.5853 30.099 76.4473 30 75.5938 30C74.9258 30 74.097 30.099 73.1074 30.2969L72.9961 30.1113C73.2559 29.7526 73.3857 29.097 73.3857 28.1445V27.9775C71.5674 29.833 69.6686 30.7607 67.6895 30.7607C66.638 30.7607 65.6237 30.5381 64.6465 30.0928C63.6816 29.6475 62.8219 29.0352 62.0674 28.2559C61.3128 27.4642 60.7067 26.4808 60.249 25.3057C59.8037 24.1182 59.5811 22.8317 59.5811 21.4463C59.5811 18.1312 60.4531 15.515 62.1973 13.5977C63.9538 11.668 66.4896 10.7031 69.8047 10.7031C70.8438 10.7031 72.0374 10.8021 73.3857 11V5.91602ZM73.3857 13.0596C71.9756 12.4163 70.3304 12.0947 68.4502 12.0947C67.4854 12.0947 66.6504 12.2308 65.9453 12.5029C65.2402 12.7627 64.665 13.1214 64.2197 13.5791C63.7868 14.0368 63.4404 14.6305 63.1807 15.3604C62.9209 16.0778 62.7415 16.8385 62.6426 17.6426C62.556 18.4466 62.5127 19.3867 62.5127 20.4629C62.5127 23.2956 63.0384 25.4541 64.0898 26.9385C65.1413 28.4229 66.502 29.165 68.1719 29.165C69.9902 29.165 71.7282 28.3177 73.3857 26.623V13.0596ZM91.2354 10.7031C94.0804 10.7031 96.3132 11.5752 97.9336 13.3193C99.554 15.0635 100.364 17.4941 100.364 20.6113C100.364 22.4173 99.9499 24.0996 99.1211 25.6582C98.2923 27.2168 97.1667 28.46 95.7441 29.3877C94.3216 30.3031 92.7816 30.7607 91.124 30.7607C88.2666 30.7607 86.0277 29.901 84.4072 28.1816C82.7992 26.4499 81.9951 24.0007 81.9951 20.834C81.9951 18.9538 82.4095 17.2406 83.2383 15.6943C84.0671 14.1357 85.1865 12.9173 86.5967 12.0391C88.0192 11.1484 89.5654 10.7031 91.2354 10.7031ZM90.8643 11.9834C89.887 11.9834 89.0397 12.1257 88.3223 12.4102C87.6048 12.6947 87.0296 13.0781 86.5967 13.5605C86.1637 14.043 85.8174 14.6553 85.5576 15.3975C85.2979 16.1396 85.1185 16.9004 85.0195 17.6797C84.9329 18.459 84.8896 19.362 84.8896 20.3887C84.8896 22.0215 85.0814 23.4502 85.4648 24.6748C85.8607 25.887 86.3864 26.8333 87.042 27.5137C87.6976 28.1816 88.3965 28.6764 89.1387 28.998C89.8809 29.3073 90.6663 29.4619 91.4951 29.4619C92.46 29.4619 93.3011 29.3135 94.0186 29.0166C94.7484 28.7074 95.3298 28.3115 95.7627 27.8291C96.1956 27.3343 96.542 26.7158 96.8018 25.9736C97.0615 25.2191 97.2347 24.4583 97.3213 23.6914C97.4202 22.9245 97.4697 22.0524 97.4697 21.0752C97.4697 19.7021 97.3398 18.4775 97.0801 17.4014C96.8203 16.3252 96.474 15.4531 96.041 14.7852C95.6204 14.1172 95.1133 13.5667 94.5195 13.1338C93.9382 12.7008 93.3506 12.404 92.7568 12.2432C92.1631 12.07 91.5322 11.9834 90.8643 11.9834ZM106.543 16.251C106.543 15.4222 106.5 14.7295 106.413 14.1729C106.339 13.6162 106.197 13.1709 105.986 12.8369C105.788 12.5029 105.51 12.2679 105.151 12.1318C104.793 11.9958 104.168 11.9339 103.277 11.9463L103.203 11.6123C105.219 11.0062 107.093 10.7031 108.825 10.7031C109.085 11.3587 109.215 12.0638 109.215 12.8184V15.1006L109.289 15.1748C109.809 14.4574 110.303 13.8203 110.773 13.2637C111.256 12.707 111.744 12.2432 112.239 11.8721C112.734 11.501 113.254 11.2227 113.798 11.0371C114.342 10.8392 114.948 10.7402 115.616 10.7402C116.037 10.7402 116.501 10.7773 117.008 10.8516L115.932 15.3789L115.245 15.1748C115.245 14.9893 115.233 14.7357 115.208 14.4141C115.183 14.0924 115.146 13.777 115.097 13.4678C115.06 13.1462 115.004 12.874 114.93 12.6514C114.868 12.4163 114.794 12.2988 114.707 12.2988C114.348 12.2988 113.983 12.3792 113.612 12.54C113.254 12.6885 112.858 12.9359 112.425 13.2822C111.992 13.6286 111.516 14.0801 110.996 14.6367C110.477 15.1934 109.883 15.8675 109.215 16.6592V27.458C109.215 27.8538 109.246 28.1755 109.308 28.4229C109.369 28.6579 109.499 28.8558 109.697 29.0166C109.895 29.1774 110.174 29.3197 110.532 29.4434C110.891 29.5671 111.361 29.7031 111.942 29.8516L111.794 30.2969C111.076 30.1979 110.464 30.1237 109.957 30.0742C109.462 30.0247 109.06 30 108.751 30C108.046 30 107.223 30.099 106.283 30.2969L106.172 30.1113C106.419 29.7526 106.543 29.097 106.543 28.1445V16.251ZM133.726 27.9033C133.726 28.1136 133.769 28.3115 133.855 28.4971C133.954 28.6702 134.066 28.8187 134.189 28.9424C134.326 29.0537 134.517 29.165 134.765 29.2764C135.012 29.3877 135.229 29.4743 135.414 29.5361C135.6 29.598 135.859 29.6784 136.193 29.7773L136.045 30.2227C135.253 30.0742 134.468 30 133.688 30C132.711 30 131.746 30.099 130.794 30.2969L130.683 30.1113C130.942 29.7526 131.072 29.097 131.072 28.1445V26.9199C130.454 28.0703 129.489 28.998 128.178 29.7031C126.879 30.4082 125.562 30.7607 124.226 30.7607C122.803 30.7607 121.653 30.3958 120.774 29.666C119.909 28.9238 119.476 27.8291 119.476 26.3818C119.476 25.4417 119.667 24.6068 120.051 23.877C120.447 23.1348 120.966 22.5101 121.609 22.0029C122.265 21.4834 123.1 21.0257 124.114 20.6299C125.141 20.234 126.192 19.9124 127.269 19.665C128.357 19.4176 129.625 19.1888 131.072 18.9785V17.2715C131.072 13.8698 129.73 12.1689 127.046 12.1689C126.18 12.1689 125.116 12.3854 123.854 12.8184C122.605 13.2389 121.554 13.7956 120.7 14.4883L119.939 13.6162C121.016 12.7627 122.29 12.0576 123.762 11.501C125.246 10.9443 126.632 10.666 127.918 10.666C128.487 10.666 129.025 10.7217 129.532 10.833C130.052 10.932 130.571 11.1237 131.091 11.4082C131.623 11.6803 132.074 12.0329 132.445 12.4658C132.829 12.8864 133.138 13.4554 133.373 14.1729C133.608 14.8779 133.726 15.682 133.726 16.585V27.9033ZM125.098 29.3506C126.174 29.3506 127.299 28.998 128.475 28.293C129.65 27.5755 130.516 26.6849 131.072 25.6211V19.9619C127.906 20.4196 125.642 21.1247 124.281 22.0771C122.933 23.0173 122.259 24.3903 122.259 26.1963C122.259 27.2972 122.494 28.1012 122.964 28.6084C123.434 29.1032 124.145 29.3506 125.098 29.3506ZM153.338 28.5898C154.699 29.2826 156.041 29.6289 157.364 29.6289C158.168 29.6289 158.91 29.5114 159.591 29.2764C160.284 29.029 160.877 28.6641 161.372 28.1816C161.879 27.6992 162.275 27.1055 162.56 26.4004C162.844 25.6829 162.986 24.8542 162.986 23.9141C162.986 23.209 162.912 22.5967 162.764 22.0771C162.615 21.5452 162.331 21.0319 161.91 20.5371C161.49 20.0299 160.902 19.4919 160.147 18.9229C159.393 18.3538 158.403 17.6735 157.179 16.8818C155.224 15.6077 153.796 14.3831 152.893 13.208C152.002 12.0329 151.557 10.8392 151.557 9.62695C151.557 8.43945 151.804 7.40039 152.299 6.50977C152.794 5.60677 153.443 4.8584 154.247 4.26465C155.063 3.65853 155.979 3.20703 156.993 2.91016C158.02 2.60091 159.059 2.44629 160.11 2.44629C162.003 2.44629 163.698 2.87923 165.194 3.74512C164.848 5.66243 164.242 7.52409 163.376 9.33008L162.875 9.07031C162.949 8.60026 163.005 8.15495 163.042 7.73438C163.091 7.30143 163.116 6.89941 163.116 6.52832C163.116 6.14486 163.098 5.7985 163.061 5.48926C163.023 5.16764 162.974 4.86458 162.912 4.58008C161.923 3.9987 160.859 3.70801 159.721 3.70801C159.003 3.70801 158.317 3.81934 157.661 4.04199C157.018 4.25228 156.449 4.56771 155.954 4.98828C155.459 5.40885 155.063 5.92839 154.767 6.54688C154.47 7.15299 154.321 7.85189 154.321 8.64355C154.321 9.2002 154.42 9.71973 154.618 10.2021C154.816 10.6846 155.119 11.167 155.527 11.6494C155.948 12.1318 156.467 12.6328 157.086 13.1523C157.717 13.6719 158.459 14.2471 159.312 14.8779C159.82 15.249 160.296 15.5892 160.741 15.8984C161.187 16.1953 161.601 16.4798 161.984 16.752C162.368 17.0241 162.72 17.29 163.042 17.5498C163.376 17.8096 163.685 18.0879 163.97 18.3848C165.343 19.832 166.029 21.5143 166.029 23.4316C166.029 24.7181 165.8 25.8252 165.343 26.7529C164.897 27.6807 164.285 28.4414 163.506 29.0352C162.727 29.6289 161.817 30.0618 160.778 30.334C159.739 30.6185 158.638 30.7607 157.476 30.7607C155.385 30.7607 153.245 30.3402 151.056 29.499C151.439 27.5075 152.045 25.6458 152.874 23.9141L153.375 24.1924C153.227 24.8851 153.152 25.7324 153.152 26.7344C153.152 27.7363 153.214 28.3548 153.338 28.5898ZM185.196 27.9033C185.196 28.1136 185.24 28.3115 185.326 28.4971C185.425 28.6702 185.536 28.8187 185.66 28.9424C185.796 29.0537 185.988 29.165 186.235 29.2764C186.483 29.3877 186.699 29.4743 186.885 29.5361C187.07 29.598 187.33 29.6784 187.664 29.7773L187.516 30.2227C186.724 30.0742 185.938 30 185.159 30C184.182 30 183.217 30.099 182.265 30.2969L182.153 30.1113C182.413 29.7526 182.543 29.097 182.543 28.1445V26.9199C181.924 28.0703 180.96 28.998 179.648 29.7031C178.35 30.4082 177.032 30.7607 175.696 30.7607C174.274 30.7607 173.123 30.3958 172.245 29.666C171.379 28.9238 170.946 27.8291 170.946 26.3818C170.946 25.4417 171.138 24.6068 171.521 23.877C171.917 23.1348 172.437 22.5101 173.08 22.0029C173.736 21.4834 174.571 21.0257 175.585 20.6299C176.612 20.234 177.663 19.9124 178.739 19.665C179.828 19.4176 181.096 19.1888 182.543 18.9785V17.2715C182.543 13.8698 181.201 12.1689 178.517 12.1689C177.651 12.1689 176.587 12.3854 175.325 12.8184C174.076 13.2389 173.024 13.7956 172.171 14.4883L171.41 13.6162C172.486 12.7627 173.76 12.0576 175.232 11.501C176.717 10.9443 178.102 10.666 179.389 10.666C179.958 10.666 180.496 10.7217 181.003 10.833C181.522 10.932 182.042 11.1237 182.562 11.4082C183.093 11.6803 183.545 12.0329 183.916 12.4658C184.299 12.8864 184.609 13.4554 184.844 14.1729C185.079 14.8779 185.196 15.682 185.196 16.585V27.9033ZM176.568 29.3506C177.645 29.3506 178.77 28.998 179.945 28.293C181.12 27.5755 181.986 26.6849 182.543 25.6211V19.9619C179.376 20.4196 177.113 21.1247 175.752 22.0771C174.404 23.0173 173.729 24.3903 173.729 26.1963C173.729 27.2972 173.965 28.1012 174.435 28.6084C174.905 29.1032 175.616 29.3506 176.568 29.3506ZM196.348 13.8945C197.436 12.7812 198.531 11.971 199.632 11.4639C200.733 10.9567 201.945 10.7031 203.269 10.7031C204.382 10.7031 205.402 10.9629 206.33 11.4824C207.27 11.9896 208.043 12.6637 208.649 13.5049C209.256 14.346 209.726 15.2985 210.06 16.3623C210.394 17.4137 210.561 18.5023 210.561 19.6279C210.561 22.943 209.682 25.5654 207.926 27.4951C206.182 29.4124 203.652 30.3711 200.337 30.3711C199.013 30.3711 197.721 30.2598 196.459 30.0371H196.422C195.197 30.0371 194.208 30.167 193.453 30.4268L193.305 30.1113C193.465 29.8763 193.564 29.6165 193.602 29.332C193.651 29.0352 193.676 28.5094 193.676 27.7549V5.91602C193.676 4.2832 193.496 3.15755 193.138 2.53906C192.791 1.92057 192.062 1.61133 190.948 1.61133H190.41L190.336 1.27734C192.377 0.671224 194.251 0.368164 195.958 0.368164C196.218 1.01139 196.348 1.71647 196.348 2.4834V13.8945ZM196.348 15.3789V27.8662C196.941 28.1878 197.727 28.4538 198.704 28.6641C199.694 28.8743 200.683 28.9795 201.673 28.9795C202.638 28.9795 203.473 28.8496 204.178 28.5898C204.895 28.3177 205.47 27.959 205.903 27.5137C206.336 27.056 206.683 26.4622 206.942 25.7324C207.215 25.0026 207.394 24.2357 207.48 23.4316C207.579 22.6276 207.629 21.6875 207.629 20.6113C207.629 17.791 207.153 15.6572 206.2 14.21C205.248 12.7503 203.986 12.0205 202.415 12.0205C201.438 12.0205 200.417 12.3112 199.354 12.8926C198.302 13.4616 197.3 14.2904 196.348 15.3789ZM223.604 10.7031C226.45 10.7031 228.682 11.5752 230.303 13.3193C231.923 15.0635 232.733 17.4941 232.733 20.6113C232.733 22.4173 232.319 24.0996 231.49 25.6582C230.661 27.2168 229.536 28.46 228.113 29.3877C226.691 30.3031 225.151 30.7607 223.493 30.7607C220.636 30.7607 218.397 29.901 216.776 28.1816C215.168 26.4499 214.364 24.0007 214.364 20.834C214.364 18.9538 214.779 17.2406 215.607 15.6943C216.436 14.1357 217.556 12.9173 218.966 12.0391C220.388 11.1484 221.935 10.7031 223.604 10.7031ZM223.233 11.9834C222.256 11.9834 221.409 12.1257 220.691 12.4102C219.974 12.6947 219.399 13.0781 218.966 13.5605C218.533 14.043 218.187 14.6553 217.927 15.3975C217.667 16.1396 217.488 16.9004 217.389 17.6797C217.302 18.459 217.259 19.362 217.259 20.3887C217.259 22.0215 217.451 23.4502 217.834 24.6748C218.23 25.887 218.756 26.8333 219.411 27.5137C220.067 28.1816 220.766 28.6764 221.508 28.998C222.25 29.3073 223.035 29.4619 223.864 29.4619C224.829 29.4619 225.67 29.3135 226.388 29.0166C227.118 28.7074 227.699 28.3115 228.132 27.8291C228.565 27.3343 228.911 26.7158 229.171 25.9736C229.431 25.2191 229.604 24.4583 229.69 23.6914C229.789 22.9245 229.839 22.0524 229.839 21.0752C229.839 19.7021 229.709 18.4775 229.449 17.4014C229.189 16.3252 228.843 15.4531 228.41 14.7852C227.99 14.1172 227.482 13.5667 226.889 13.1338C226.307 12.7008 225.72 12.404 225.126 12.2432C224.532 12.07 223.901 11.9834 223.233 11.9834ZM250.583 27.9033C250.583 28.1136 250.626 28.3115 250.713 28.4971C250.812 28.6702 250.923 28.8187 251.047 28.9424C251.183 29.0537 251.375 29.165 251.622 29.2764C251.869 29.3877 252.086 29.4743 252.271 29.5361C252.457 29.598 252.717 29.6784 253.051 29.7773L252.902 30.2227C252.111 30.0742 251.325 30 250.546 30C249.569 30 248.604 30.099 247.651 30.2969L247.54 30.1113C247.8 29.7526 247.93 29.097 247.93 28.1445V26.9199C247.311 28.0703 246.346 28.998 245.035 29.7031C243.736 30.4082 242.419 30.7607 241.083 30.7607C239.66 30.7607 238.51 30.3958 237.632 29.666C236.766 28.9238 236.333 27.8291 236.333 26.3818C236.333 25.4417 236.525 24.6068 236.908 23.877C237.304 23.1348 237.824 22.5101 238.467 22.0029C239.122 21.4834 239.957 21.0257 240.972 20.6299C241.998 20.234 243.05 19.9124 244.126 19.665C245.215 19.4176 246.482 19.1888 247.93 18.9785V17.2715C247.93 13.8698 246.588 12.1689 243.903 12.1689C243.037 12.1689 241.974 12.3854 240.712 12.8184C239.463 13.2389 238.411 13.7956 237.558 14.4883L236.797 13.6162C237.873 12.7627 239.147 12.0576 240.619 11.501C242.104 10.9443 243.489 10.666 244.775 10.666C245.344 10.666 245.882 10.7217 246.39 10.833C246.909 10.932 247.429 11.1237 247.948 11.4082C248.48 11.6803 248.932 12.0329 249.303 12.4658C249.686 12.8864 249.995 13.4554 250.23 14.1729C250.465 14.8779 250.583 15.682 250.583 16.585V27.9033ZM241.955 29.3506C243.031 29.3506 244.157 28.998 245.332 28.293C246.507 27.5755 247.373 26.6849 247.93 25.6211V19.9619C244.763 20.4196 242.499 21.1247 241.139 22.0771C239.79 23.0173 239.116 24.3903 239.116 26.1963C239.116 27.2972 239.351 28.1012 239.821 28.6084C240.291 29.1032 241.003 29.3506 241.955 29.3506ZM259.062 16.251C259.062 15.4222 259.019 14.7295 258.933 14.1729C258.858 13.6162 258.716 13.1709 258.506 12.8369C258.308 12.5029 258.03 12.2679 257.671 12.1318C257.312 11.9958 256.688 11.9339 255.797 11.9463L255.723 11.6123C257.739 11.0062 259.613 10.7031 261.345 10.7031C261.604 11.3587 261.734 12.0638 261.734 12.8184V15.1006L261.809 15.1748C262.328 14.4574 262.823 13.8203 263.293 13.2637C263.775 12.707 264.264 12.2432 264.759 11.8721C265.254 11.501 265.773 11.2227 266.317 11.0371C266.862 10.8392 267.468 10.7402 268.136 10.7402C268.556 10.7402 269.02 10.7773 269.527 10.8516L268.451 15.3789L267.765 15.1748C267.765 14.9893 267.752 14.7357 267.728 14.4141C267.703 14.0924 267.666 13.777 267.616 13.4678C267.579 13.1462 267.523 12.874 267.449 12.6514C267.387 12.4163 267.313 12.2988 267.227 12.2988C266.868 12.2988 266.503 12.3792 266.132 12.54C265.773 12.6885 265.377 12.9359 264.944 13.2822C264.511 13.6286 264.035 14.0801 263.516 14.6367C262.996 15.1934 262.402 15.8675 261.734 16.6592V27.458C261.734 27.8538 261.765 28.1755 261.827 28.4229C261.889 28.6579 262.019 28.8558 262.217 29.0166C262.415 29.1774 262.693 29.3197 263.052 29.4434C263.41 29.5671 263.881 29.7031 264.462 29.8516L264.313 30.2969C263.596 30.1979 262.984 30.1237 262.477 30.0742C261.982 30.0247 261.58 30 261.271 30C260.565 30 259.743 30.099 258.803 30.2969L258.691 30.1113C258.939 29.7526 259.062 29.097 259.062 28.1445V16.251ZM274.574 16.251C274.574 14.4945 274.364 13.3193 273.943 12.7256C273.535 12.1195 272.657 11.8597 271.309 11.9463L271.234 11.6123C273.275 11.0062 275.149 10.7031 276.856 10.7031C277.116 11.3464 277.246 12.0514 277.246 12.8184V26.6602C277.246 27.6374 277.475 28.361 277.933 28.8311C278.39 29.3011 279.201 29.6413 280.363 29.8516L280.215 30.2969C278.792 30.099 277.691 30 276.912 30C276.145 30 275.279 30.099 274.314 30.2969L274.203 30.1113C274.451 29.7526 274.574 29.097 274.574 28.1445V16.251ZM272.682 3.81934C273.857 3.139 275.187 2.56999 276.671 2.1123C276.671 3.139 276.838 4.15332 277.172 5.15527L276.931 5.48926C275.756 5.56348 274.531 5.89128 273.257 6.47266C272.948 5.61914 272.756 4.7347 272.682 3.81934ZM297.267 27.9033C297.267 28.1136 297.31 28.3115 297.396 28.4971C297.495 28.6702 297.607 28.8187 297.73 28.9424C297.867 29.0537 298.058 29.165 298.306 29.2764C298.553 29.3877 298.77 29.4743 298.955 29.5361C299.141 29.598 299.4 29.6784 299.734 29.7773L299.586 30.2227C298.794 30.0742 298.009 30 297.229 30C296.252 30 295.287 30.099 294.335 30.2969L294.224 30.1113C294.483 29.7526 294.613 29.097 294.613 28.1445V26.9199C293.995 28.0703 293.03 28.998 291.719 29.7031C290.42 30.4082 289.103 30.7607 287.767 30.7607C286.344 30.7607 285.194 30.3958 284.315 29.666C283.45 28.9238 283.017 27.8291 283.017 26.3818C283.017 25.4417 283.208 24.6068 283.592 23.877C283.988 23.1348 284.507 22.5101 285.15 22.0029C285.806 21.4834 286.641 21.0257 287.655 20.6299C288.682 20.234 289.733 19.9124 290.81 19.665C291.898 19.4176 293.166 19.1888 294.613 18.9785V17.2715C294.613 13.8698 293.271 12.1689 290.587 12.1689C289.721 12.1689 288.657 12.3854 287.396 12.8184C286.146 13.2389 285.095 13.7956 284.241 14.4883L283.48 13.6162C284.557 12.7627 285.831 12.0576 287.303 11.501C288.787 10.9443 290.173 10.666 291.459 10.666C292.028 10.666 292.566 10.7217 293.073 10.833C293.593 10.932 294.112 11.1237 294.632 11.4082C295.164 11.6803 295.615 12.0329 295.986 12.4658C296.37 12.8864 296.679 13.4554 296.914 14.1729C297.149 14.8779 297.267 15.682 297.267 16.585V27.9033ZM288.639 29.3506C289.715 29.3506 290.84 28.998 292.016 28.293C293.191 27.5755 294.057 26.6849 294.613 25.6211V19.9619C291.447 20.4196 289.183 21.1247 287.822 22.0771C286.474 23.0173 285.8 24.3903 285.8 26.1963C285.8 27.2972 286.035 28.1012 286.505 28.6084C286.975 29.1032 287.686 29.3506 288.639 29.3506Z" fill="white"/>
</svg>
