<svg width="22" height="24" viewBox="0 0 22 24" fill="none" xmlns="http://www.w3.org/2000/svg">
<path d="M2.33218 2.57143H1.39216H1.22836C1.10224 2.57143 1 2.46919 1 2.34307C1 2.24482 1.06284 2.15759 1.15603 2.12647L3.35294 1.39286L4.50378 1.16228C4.97392 1.06808 5.44475 1.32084 5.62601 1.76474L8.84314 9.64286L11.8023 17.0539C12.1416 17.9038 13.3498 17.8892 13.6684 17.0313L18.9264 2.87515C18.9952 2.69005 18.9498 2.48187 18.8103 2.34212C18.7066 2.23826 18.5612 2.18472 18.4148 2.19519C17.7055 2.24595 17.4888 1.23613 18.1684 1.02666C18.2256 1.00903 18.2853 1 18.3452 1H20.3382C20.7037 1 21 1.29629 21 1.66177C21 1.74369 20.9848 1.82489 20.9551 1.90126L13.0591 22.2416C12.8943 22.6662 12.4251 22.8866 11.993 22.7423C11.7382 22.6572 11.5383 22.4571 11.4535 22.2022L10.8039 20.25L8.45098 13.9643L4.17219 4.2224C4.14894 4.16947 4.12115 4.11866 4.08912 4.07053L3.5001 3.18542C3.40367 3.04051 3.27108 2.92328 3.11545 2.84533L2.78003 2.67732C2.64101 2.60769 2.48767 2.57143 2.33218 2.57143Z" stroke="white"/>
</svg>
